<?xml version="1.0" encoding="UTF-8"?>
<svg id="katman_3" xmlns="http://www.w3.org/2000/svg" version="1.1" viewBox="0 0 595.28 841.89">
  <!-- Generator: Adobe Illustrator 29.1.0, SVG Export Plug-In . SVG Version: 2.1.0 Build 142)  -->
  <defs>
    <style>
      .st0 {
        fill: #e3e2f2;
      }

      .st1 {
        fill: #541b93;
      }

      .st2 {
        fill: #fff;
      }
    </style>
  </defs>
  <g>
    <path class="st0" d="M260.66,389.16L0,128.5v288.08h249.3c.85-10.41,4.98-19.9,11.36-27.42Z"/>
    <path class="st0" d="M293.83,372.05V0H0v117l266.41,266.41c7.52-6.37,17.01-10.51,27.43-11.36Z"/>
    <path class="st0" d="M346.5,416.58l248.77-.5V129.02l-260.14,260.14c6.37,7.52,10.51,17.01,11.36,27.43Z"/>
    <path class="st0" d="M335.14,452.14l260.14,260.14v-288.06l-248.77.5c-.85,10.42-4.99,19.9-11.36,27.43Z"/>
    <path class="st0" d="M249.3,424.71H0v288.08l260.66-260.66c-6.38-7.52-10.51-17.01-11.36-27.42Z"/>
    <path class="st0" d="M329.39,383.41L595.28,117.52V0h-293.31v372.05c10.42.85,19.9,4.98,27.43,11.36Z"/>
    <path class="st0" d="M337.97,420.65c0-1.37-.07-2.73-.21-4.07-.79-8.03-3.92-15.38-8.71-21.34-1.7-2.12-3.6-4.07-5.69-5.81-5.94-4.96-13.31-8.25-21.4-9.17-1.52-.18-3.07-.26-4.63-.26-1.18,0-2.34.05-3.49.15-8.26.69-15.81,3.87-21.91,8.76-2.12,1.7-4.07,3.61-5.8,5.7-5.08,6.07-8.41,13.65-9.23,21.97-.14,1.34-.21,2.7-.21,4.07s.07,2.73.21,4.07c.82,8.32,4.15,15.89,9.23,21.97,1.74,2.09,3.68,3.99,5.8,5.7,6.1,4.9,13.66,8.07,21.91,8.76,1.15.1,2.32.15,3.49.15,1.57,0,3.11-.09,4.63-.26,8.09-.92,15.46-4.21,21.4-9.17,2.09-1.74,3.99-3.69,5.69-5.81,4.79-5.96,7.92-13.31,8.71-21.34.14-1.34.21-2.7.21-4.07Z"/>
    <path class="st0" d="M266.41,457.89L0,724.29v117.6h293.83v-372.64c-10.42-.85-19.9-4.99-27.43-11.36Z"/>
    <path class="st0" d="M301.96,469.25v372.64h293.31v-118.12l-265.89-265.89c-7.52,6.38-17.01,10.51-27.43,11.36Z"/>
    <line class="st2" y1="128.5" y2="117"/>
    <line class="st2" y1="724.29" y2="712.8"/>
    <line class="st2" x1="293.83" x2="301.96"/>
    <line class="st2" x1="301.96" y1="841.89" x2="293.83" y2="841.89"/>
    <line class="st2" x1="595.28" y1="712.28" x2="595.28" y2="723.77"/>
    <line class="st2" x1="595.28" y1="416.08" x2="595.28" y2="424.21"/>
    <line class="st2" x1="595.28" y1="117.52" x2="595.28" y2="129.02"/>
    <path class="st2" d="M335.14,452.14c6.37-7.52,10.51-17.01,11.36-27.43l248.77-.5v-8.13l-248.77.5c-.85-10.42-4.99-19.9-11.36-27.43l260.14-260.14v-11.5l-265.89,265.89c-7.52-6.38-17.01-10.51-27.43-11.36V0h-8.13v372.05c-10.42.85-19.9,4.99-27.43,11.36L0,117v11.5l260.66,260.66c-6.38,7.52-10.51,17.01-11.36,27.42H0v8.13h249.3c.85,10.41,4.98,19.9,11.36,27.42L0,712.8v11.5l266.41-266.41c7.52,6.37,17.01,10.51,27.43,11.36v372.64h8.13v-372.64c10.42-.85,19.9-4.98,27.43-11.36l265.89,265.89v-11.5l-260.14-260.14ZM329.05,446.05c-1.7,2.12-3.6,4.07-5.69,5.81-5.94,4.96-13.31,8.25-21.4,9.17-1.52.18-3.07.26-4.63.26-1.18,0-2.34-.05-3.49-.15-8.26-.69-15.81-3.87-21.91-8.76-2.12-1.7-4.07-3.61-5.8-5.7-5.08-6.07-8.41-13.65-9.23-21.97-.14-1.34-.21-2.7-.21-4.07s.07-2.73.21-4.07c.82-8.32,4.15-15.89,9.23-21.97,1.74-2.09,3.68-3.99,5.8-5.7,6.1-4.9,13.66-8.07,21.91-8.76,1.15-.1,2.32-.15,3.49-.15,1.57,0,3.11.09,4.63.26,8.09.92,15.46,4.21,21.4,9.17,2.09,1.74,3.99,3.69,5.69,5.81,4.79,5.96,7.92,13.31,8.71,21.34.14,1.34.21,2.7.21,4.07s-.07,2.73-.21,4.07c-.79,8.03-3.92,15.38-8.71,21.34Z"/>
  </g>
  <path class="st1" d="M347.76,399.25l-46.1,46.1c-3.44,3.44-9.01,3.44-12.45,0l-17.57-17.77c-3.44-3.44-3.44-9.01,0-12.45h0c3.44-3.44,9.01-3.44,12.45,0l11.35,11.54,39.88-39.88c3.44-3.44,9.01-3.44,12.45,0h0c3.44,3.44,3.44,9.01,0,12.45Z"/>
</svg>